# Blender 3.6.1
# www.blender.org
mtllib Rack_holder.mtl
o rackHolder
v -2.060227 0.000402 5.175960
v 2.044336 0.000402 5.175960
v -2.060227 1.144401 5.175960
v 2.044336 1.144401 5.175960
v -2.029404 0.143402 5.145871
v 2.013514 0.143402 5.145871
v -2.029404 1.144401 5.145871
v 2.013514 1.144401 5.145871
v -2.029405 0.143400 -5.157561
v 2.013513 0.143400 -5.157562
v -2.029405 1.144400 -5.157561
v 2.013513 1.144400 -5.157562
v -2.060227 0.000400 -5.187652
v 2.044335 0.000400 -5.187652
v -2.060227 1.144400 -5.187652
v 2.044335 1.144400 -5.187652
vn 1.0000 -0.0000 -0.0000
vn -0.0000 -0.0000 1.0000
vn -0.0000 -0.0000 -1.0000
vn -1.0000 -0.0000 -0.0000
vn -0.0000 1.0000 -0.0000
vn -0.0000 -1.0000 -0.0000
vt 0.000000 0.010000
vt 1.027300 0.010000
vt 0.000000 0.080000
vt 1.027300 0.080000
vt 0.393500 0.010000
vt 0.393500 0.080000
vt 0.000000 0.000000
vt 1.033300 0.000000
vt 1.033300 0.080000
vt 0.399500 0.000000
vt 0.399500 0.080000
vt 0.199750 -0.516650
vt -0.196750 -0.513650
vt -0.199750 -0.516650
vt -0.196750 0.513650
vt -0.199750 0.516650
vt 0.196750 0.513650
vt 0.199750 0.516650
vt 0.196750 -0.513650
s 0
usemtl 191,191,191
f 5/1/1 9/2/1 7/3/1
f 7/3/1 9/2/1 11/4/1
f 9/1/2 10/5/2 11/3/2
f 11/3/2 10/5/2 12/6/2
f 6/1/3 5/5/3 8/3/3
f 8/3/3 5/5/3 7/6/3
f 10/1/4 6/2/4 12/3/4
f 12/3/4 6/2/4 8/4/4
f 13/7/4 1/8/4 15/3/4
f 15/3/4 1/8/4 3/9/4
f 14/7/3 13/10/3 16/3/3
f 16/3/3 13/10/3 15/11/3
f 2/7/1 14/8/1 4/3/1
f 4/3/1 14/8/1 16/9/1
f 1/7/2 2/10/2 3/3/2
f 3/3/2 2/10/2 4/11/2
f 4/12/5 7/13/5 3/14/5
f 3/14/5 7/13/5 11/15/5
f 3/14/5 11/15/5 15/16/5
f 15/16/5 11/15/5 12/17/5
f 15/16/5 12/17/5 16/18/5
f 16/18/5 12/17/5 4/12/5
f 4/12/5 12/17/5 8/19/5
f 4/12/5 8/19/5 7/13/5
f 2/14/6 1/12/6 14/16/6
f 14/16/6 1/12/6 13/18/6
f 10/17/5 9/15/5 6/19/5
f 6/19/5 9/15/5 5/13/5
