# Blender 4.0.2
# www.blender.org
mtllib Spoon_beaker_holder.mtl
o convex_0
v -0.656782 0.155294 -1.403696
v -0.337281 0.006975 1.444476
v -0.629538 0.006975 1.444476
v -0.615963 0.006974 -1.443269
v -0.337281 0.155295 1.444476
v -0.337314 0.155294 -1.443269
v -0.663586 0.155295 1.382572
v -0.337314 0.006974 -1.443269
v -0.663586 0.006974 -1.381365
v -0.663586 0.006975 1.382572
v -0.663586 0.155294 -1.381365
v -0.629538 0.155295 1.444476
v -0.615963 0.155294 -1.443269
vn -0.0000 1.0000 -0.0000
vn -0.0000 -1.0000 -0.0000
vn -0.0000 -0.0000 1.0000
vn 1.0000 -0.0000 -0.0000
vn -0.0000 -0.0000 -1.0000
vn -0.7914 -0.0554 -0.6088
vn -1.0000 -0.0000 -0.0000
vn -0.8762 -0.0000 0.4819
vn -0.9566 -0.0000 -0.2915
vn -0.6961 -0.0000 -0.7180
s 0
f 6//1 13//1 1//1
f 3//2 4//2 2//2
f 2//3 5//3 3//3
f 2//4 6//4 5//4
f 5//1 6//1 1//1
f 1//1 7//1 5//1
f 4//2 8//2 2//2
f 2//4 8//4 6//4
f 6//5 8//5 4//5
f 3//2 9//2 4//2
f 4//6 9//6 1//6
f 9//7 10//7 7//7
f 7//8 10//8 3//8
f 3//2 10//2 9//2
f 1//1 11//1 7//1
f 9//9 11//9 1//9
f 7//7 11//7 9//7
f 5//3 12//3 3//3
f 3//8 12//8 7//8
f 7//1 12//1 5//1
f 1//10 13//10 4//10
f 4//5 13//5 6//5
o convex_1
v 0.322154 0.155294 -1.452793
v 0.648428 0.006975 1.361741
v 0.641594 0.006975 1.389725
v 0.648428 0.155295 1.361741
v 0.322187 0.155295 1.434952
v 0.322154 0.006974 -1.452793
v 0.648428 0.155294 -1.379582
v 0.322187 0.006975 1.434952
v 0.648428 0.006974 -1.379582
v 0.600810 0.006974 -1.452793
v 0.607612 0.155295 1.434952
v 0.600810 0.155294 -1.452793
v 0.607612 0.006975 1.434952
vn -0.0000 -0.0000 1.0000
vn 0.9715 -0.0000 0.2372
vn -0.0000 1.0000 -0.0000
vn -0.0000 -1.0000 -0.0000
vn -1.0000 -0.0000 -0.0000
vn 1.0000 -0.0000 -0.0000
vn 0.8383 -0.0000 -0.5452
vn -0.0000 -0.0000 -1.0000
vn 0.8723 0.0516 0.4863
vn 0.7995 -0.0000 0.6007
s 0
f 21//11 26//11 24//11
f 15//12 17//12 16//12
f 14//13 18//13 17//13
f 16//14 19//14 15//14
f 14//15 19//15 18//15
f 15//16 20//16 17//16
f 17//13 20//13 14//13
f 16//14 21//14 19//14
f 19//15 21//15 18//15
f 19//14 22//14 15//14
f 15//16 22//16 20//16
f 22//17 23//17 20//17
f 14//18 23//18 19//18
f 19//14 23//14 22//14
f 17//19 24//19 16//19
f 18//13 24//13 17//13
f 21//11 24//11 18//11
f 20//13 25//13 14//13
f 23//17 25//17 20//17
f 14//18 25//18 23//18
f 16//14 26//14 21//14
f 24//20 26//20 16//20
o convex_2
v 0.029794 0.074397 -1.457601
v 0.322124 0.006975 1.441379
v -0.337281 0.006975 1.441379
v 0.322124 0.155295 1.441379
v -0.337281 0.155294 -1.457317
v -0.337281 0.006974 -1.457601
v -0.337281 0.155295 1.441379
v 0.322124 0.155294 -1.457317
v 0.322124 0.006974 -1.457601
vn 0.0004 0.0019 -1.0000
vn -0.0000 -0.0000 1.0000
vn -1.0000 -0.0000 -0.0000
vn -0.0000 -1.0000 -0.0000
vn -0.0004 0.0019 -1.0000
vn -0.0000 1.0000 -0.0000
vn 1.0000 -0.0000 -0.0000
vn -0.0000 0.0035 -1.0000
vn -0.0000 -0.0000 -1.0000
s 0
f 34//21 35//21 27//21
f 28//22 30//22 29//22
f 31//23 32//23 29//23
f 29//24 32//24 28//24
f 27//25 32//25 31//25
f 30//22 33//22 29//22
f 31//26 33//26 30//26
f 29//23 33//23 31//23
f 28//27 34//27 30//27
f 31//28 34//28 27//28
f 30//26 34//26 31//26
f 32//24 35//24 28//24
f 27//29 35//29 32//29
f 28//27 35//27 34//27
o convex_3
v 0.454276 0.178240 0.860193
v -0.468846 3.975070 0.590561
v -0.440202 4.093888 0.590561
v -0.468846 3.975070 0.865771
v -0.468846 0.178240 0.590561
v 0.454276 3.975070 0.590561
v 0.454276 3.975070 0.865825
v -0.468846 0.178622 0.865771
v 0.454276 0.178240 0.590534
v 0.416144 4.093888 0.809586
v -0.440202 4.093888 0.809613
v 0.416144 4.093505 0.590561
v 0.454276 0.178622 0.865798
vn -0.0000 -0.0000 1.0000
vn -0.9721 0.2344 -0.0000
vn -1.0000 -0.0000 -0.0000
vn 1.0000 -0.0000 -0.0000
vn -0.0004 -1.0000 0.0014
vn -0.0001 -0.0000 1.0000
vn -0.0000 -0.0000 -1.0000
vn -0.0000 -1.0000 -0.0000
vn 0.9522 0.3056 -0.0000
vn -0.0000 0.4278 0.9039
vn -0.0001 0.4273 0.9041
vn -0.0000 1.0000 -0.0000
vn 0.0004 1.0000 -0.0017
vn 0.9519 0.3065 -0.0005
vn -0.0000 -0.9977 0.0680
s 0
f 43//30 48//30 42//30
f 37//31 39//31 38//31
f 37//32 40//32 39//32
f 41//33 42//33 36//33
f 36//34 43//34 40//34
f 40//32 43//32 39//32
f 39//35 43//35 42//35
f 38//36 44//36 37//36
f 40//37 44//37 36//37
f 37//36 44//36 40//36
f 36//33 44//33 41//33
f 41//38 45//38 42//38
f 45//39 46//39 42//39
f 39//31 46//31 38//31
f 42//40 46//40 39//40
f 38//41 46//41 45//41
f 38//36 47//36 44//36
f 44//36 47//36 41//36
f 45//42 47//42 38//42
f 41//43 47//43 45//43
f 42//33 48//33 36//33
f 36//44 48//44 43//44
o convex_3.001
v -0.471018 0.178240 -0.875907
v 0.452104 3.975070 -0.606275
v 0.423460 4.093888 -0.606275
v 0.452104 3.975070 -0.881485
v 0.452104 0.178240 -0.606275
v -0.471018 3.975070 -0.606275
v -0.471018 3.975070 -0.881539
v 0.452104 0.178622 -0.881485
v -0.471018 0.178240 -0.606248
v -0.432886 4.093888 -0.825300
v 0.423460 4.093888 -0.825327
v -0.432886 4.093505 -0.606275
v -0.471018 0.178622 -0.881512
vn -0.0000 -0.0000 -1.0000
vn 0.9721 0.2344 -0.0000
vn 1.0000 -0.0000 -0.0000
vn -1.0000 -0.0000 -0.0000
vn 0.0004 -1.0000 -0.0014
vn 0.0001 -0.0000 -1.0000
vn -0.0000 -0.0000 1.0000
vn -0.0000 -1.0000 -0.0000
vn -0.9522 0.3056 -0.0000
vn -0.0000 0.4278 -0.9039
vn 0.0001 0.4273 -0.9041
vn -0.0000 1.0000 -0.0000
vn -0.0004 1.0000 0.0017
vn -0.9519 0.3065 0.0005
vn -0.0000 -0.9977 -0.0680
s 0
f 56//45 61//45 55//45
f 50//46 52//46 51//46
f 50//47 53//47 52//47
f 54//48 55//48 49//48
f 49//49 56//49 53//49
f 53//47 56//47 52//47
f 52//50 56//50 55//50
f 51//51 57//51 50//51
f 53//52 57//52 49//52
f 50//51 57//51 53//51
f 49//48 57//48 54//48
f 54//53 58//53 55//53
f 58//54 59//54 55//54
f 52//46 59//46 51//46
f 55//55 59//55 52//55
f 51//56 59//56 58//56
f 51//51 60//51 57//51
f 57//51 60//51 54//51
f 58//57 60//57 51//57
f 54//58 60//58 58//58
f 55//48 61//48 49//48
f 49//59 61//59 56//59
o convex_5.001
v 0.364993 2.424370 -0.666780
v 0.453296 0.178480 0.664730
v 0.453296 0.007690 0.656257
v 0.324198 0.178480 0.664730
v 0.344608 4.093888 0.664730
v 0.453296 3.974693 -0.666649
v 0.453296 0.178480 -0.666780
v 0.324198 0.178480 -0.666780
v 0.324198 3.974693 -0.666649
v 0.453296 3.974693 0.664730
v 0.324198 3.974693 0.664730
v 0.324198 0.007688 -0.228461
v 0.364993 4.093488 -0.666649
v 0.324198 0.007690 0.656257
v 0.453296 0.007688 -0.228461
v 0.385379 4.071089 0.664730
v 0.344608 4.093888 -0.658177
vn -0.3784 0.1299 -0.9165
vn -0.0000 -0.0495 0.9988
vn -0.0000 -0.0000 1.0000
vn 1.0000 -0.0000 -0.0000
vn 0.0009 -0.0000 -1.0000
vn -0.0000 -0.0000 -1.0000
vn -0.0019 -0.0000 -1.0000
vn -1.0000 -0.0000 -0.0000
vn -0.9857 0.1688 -0.0000
vn -0.0000 -0.9318 -0.3631
vn 0.0001 0.0001 -1.0000
vn -0.0002 0.0001 -1.0000
vn -0.0000 -1.0000 -0.0000
vn 0.8175 0.5760 -0.0000
vn 0.8026 0.5966 -0.0023
vn 0.4881 0.8728 0.0072
vn 0.0196 0.9998 -0.0000
s 0
f 70//60 78//60 74//60
f 63//61 65//61 64//61
f 63//62 66//62 65//62
f 64//63 67//63 63//63
f 64//63 68//63 67//63
f 67//64 68//64 62//64
f 68//65 69//65 62//65
f 69//66 70//66 62//66
f 65//67 70//67 69//67
f 63//62 71//62 66//62
f 67//63 71//63 63//63
f 66//62 72//62 65//62
f 65//67 72//67 70//67
f 70//68 72//68 66//68
f 68//69 73//69 69//69
f 69//67 73//67 65//67
f 62//70 74//70 67//70
f 70//71 74//71 62//71
f 65//61 75//61 64//61
f 64//72 75//72 73//72
f 73//67 75//67 65//67
f 64//63 76//63 68//63
f 73//72 76//72 64//72
f 68//69 76//69 73//69
f 71//62 77//62 66//62
f 67//73 77//73 71//73
f 74//74 77//74 67//74
f 66//75 77//75 74//75
f 66//68 78//68 70//68
f 74//76 78//76 66//76
o convex_5.002
v 0.387300 3.616246 -0.400068
v 0.451521 2.118986 0.398838
v 0.451521 2.005126 0.393754
v 0.357631 2.118986 0.398838
v 0.372475 4.729259 0.398838
v 0.451521 4.649796 -0.399990
v 0.451521 2.118986 -0.400068
v 0.357631 2.118986 -0.400068
v 0.357631 4.649796 -0.399990
v 0.451521 4.649796 0.398838
v 0.357631 4.649796 0.398838
v 0.357631 2.005126 -0.137077
v 0.387300 4.728992 -0.399990
v 0.357631 2.005126 0.393754
v 0.451521 2.005126 -0.137077
v 0.402127 4.714059 0.398838
v 0.372475 4.729259 -0.394906
vn -0.3201 0.1199 -0.9398
vn -0.0000 -0.0446 0.9990
vn -0.0000 -0.0000 1.0000
vn 1.0000 -0.0000 -0.0000
vn 0.0007 -0.0000 -1.0000
vn -0.0000 -0.0000 -1.0000
vn -0.0016 -0.0000 -1.0000
vn -1.0000 -0.0000 -0.0000
vn -0.9830 0.1836 -0.0000
vn -0.0000 -0.9177 -0.3973
vn 0.0001 0.0001 -1.0000
vn -0.0002 0.0001 -1.0000
vn -0.0000 -1.0000 -0.0000
vn 0.7929 0.6094 -0.0000
vn 0.7767 0.6298 -0.0026
vn 0.4562 0.8899 0.0082
vn 0.0180 0.9998 -0.0000
s 0
f 87//77 95//77 91//77
f 80//78 82//78 81//78
f 80//79 83//79 82//79
f 81//80 84//80 80//80
f 81//80 85//80 84//80
f 84//81 85//81 79//81
f 85//82 86//82 79//82
f 86//83 87//83 79//83
f 82//84 87//84 86//84
f 80//79 88//79 83//79
f 84//80 88//80 80//80
f 83//79 89//79 82//79
f 82//84 89//84 87//84
f 87//85 89//85 83//85
f 85//86 90//86 86//86
f 86//84 90//84 82//84
f 79//87 91//87 84//87
f 87//88 91//88 79//88
f 82//78 92//78 81//78
f 81//89 92//89 90//89
f 90//84 92//84 82//84
f 81//80 93//80 85//80
f 90//89 93//89 81//89
f 85//86 93//86 90//86
f 88//79 94//79 83//79
f 84//90 94//90 88//90
f 91//91 94//91 84//91
f 83//92 94//92 91//92
f 83//85 95//85 87//85
f 91//93 95//93 83//93
o convex_5.004
v -0.365311 2.424370 0.651066
v -0.453613 0.178480 -0.680444
v -0.453613 0.007688 -0.671971
v -0.324515 0.178480 -0.680444
v -0.344926 4.093888 -0.680444
v -0.453614 3.974693 0.650935
v -0.453614 0.178480 0.651066
v -0.324516 0.178480 0.651066
v -0.324516 3.974693 0.650935
v -0.453614 3.974693 -0.680444
v -0.324516 3.974693 -0.680444
v -0.324515 0.007690 0.212747
v -0.365311 4.093488 0.650935
v -0.324515 0.007688 -0.671971
v -0.453613 0.007690 0.212747
v -0.385697 4.071089 -0.680444
v -0.344926 4.093888 0.642463
vn 0.3783 0.1299 0.9165
vn -0.0000 -0.0495 -0.9988
vn -0.0000 -0.0000 -1.0000
vn -1.0000 -0.0000 -0.0000
vn -0.0009 -0.0000 1.0000
vn -0.0000 -0.0000 1.0000
vn 0.0019 -0.0000 1.0000
vn 1.0000 -0.0000 -0.0000
vn 0.9857 0.1688 -0.0000
vn -0.0000 -0.9318 0.3631
vn -0.0001 0.0001 1.0000
vn 0.0002 0.0001 1.0000
vn -0.0000 -1.0000 -0.0000
vn -0.8175 0.5760 -0.0000
vn -0.8026 0.5966 0.0023
vn -0.4881 0.8728 -0.0072
vn -0.0196 0.9998 -0.0000
s 0
f 104//94 112//94 108//94
f 97//95 99//95 98//95
f 97//96 100//96 99//96
f 98//97 101//97 97//97
f 98//97 102//97 101//97
f 101//98 102//98 96//98
f 102//99 103//99 96//99
f 103//100 104//100 96//100
f 99//101 104//101 103//101
f 97//96 105//96 100//96
f 101//97 105//97 97//97
f 100//96 106//96 99//96
f 99//101 106//101 104//101
f 104//102 106//102 100//102
f 102//103 107//103 103//103
f 103//101 107//101 99//101
f 96//104 108//104 101//104
f 104//105 108//105 96//105
f 99//95 109//95 98//95
f 98//106 109//106 107//106
f 107//101 109//101 99//101
f 98//97 110//97 102//97
f 107//106 110//106 98//106
f 102//103 110//103 107//103
f 105//96 111//96 100//96
f 101//107 111//107 105//107
f 108//108 111//108 101//108
f 100//109 111//109 108//109
f 100//102 112//102 104//102
f 108//110 112//110 100//110
o convex_5.005
v -0.375097 3.616246 0.400068
v -0.439318 2.118986 -0.398838
v -0.439318 2.005126 -0.393754
v -0.345428 2.118986 -0.398838
v -0.360272 4.729259 -0.398838
v -0.439318 4.649796 0.399990
v -0.439318 2.118986 0.400068
v -0.345428 2.118986 0.400068
v -0.345428 4.649796 0.399990
v -0.439318 4.649796 -0.398838
v -0.345428 4.649796 -0.398838
v -0.345428 2.005126 0.137077
v -0.375097 4.728992 0.399990
v -0.345428 2.005126 -0.393754
v -0.439318 2.005126 0.137077
v -0.389923 4.714059 -0.398838
v -0.360272 4.729259 0.394906
vn 0.3201 0.1199 0.9398
vn -0.0000 -0.0446 -0.9990
vn -0.0000 -0.0000 -1.0000
vn -1.0000 -0.0000 -0.0000
vn -0.0007 -0.0000 1.0000
vn -0.0000 -0.0000 1.0000
vn 0.0016 -0.0000 1.0000
vn 1.0000 -0.0000 -0.0000
vn 0.9830 0.1836 -0.0000
vn -0.0000 -0.9177 0.3973
vn -0.0001 0.0001 1.0000
vn 0.0002 0.0001 1.0000
vn -0.0000 -1.0000 -0.0000
vn -0.7929 0.6094 -0.0000
vn -0.7767 0.6298 0.0026
vn -0.4562 0.8899 -0.0082
vn -0.0180 0.9998 -0.0000
s 0
f 121//111 129//111 125//111
f 114//112 116//112 115//112
f 114//113 117//113 116//113
f 115//114 118//114 114//114
f 115//114 119//114 118//114
f 118//115 119//115 113//115
f 119//116 120//116 113//116
f 120//117 121//117 113//117
f 116//118 121//118 120//118
f 114//113 122//113 117//113
f 118//114 122//114 114//114
f 117//113 123//113 116//113
f 116//118 123//118 121//118
f 121//119 123//119 117//119
f 119//120 124//120 120//120
f 120//118 124//118 116//118
f 113//121 125//121 118//121
f 121//122 125//122 113//122
f 116//112 126//112 115//112
f 115//123 126//123 124//123
f 124//118 126//118 116//118
f 115//114 127//114 119//114
f 124//123 127//123 115//123
f 119//120 127//120 124//120
f 122//113 128//113 117//113
f 118//124 128//124 122//124
f 125//125 128//125 118//125
f 117//126 128//126 125//126
f 117//119 129//119 121//119
f 125//127 129//127 117//127
